<svg id="Layer_1" data-name="Layer 1" xmlns="http://www.w3.org/2000/svg" viewBox="0 0 74 28"><defs><style>.cls-1{fill:#0075c9;}.cls-2{fill:#fff;}</style></defs><polygon class="cls-1" points="10 0 0 28 64 28 74 0 10 0"/><g id="IQ_Print" data-name="IQ Print"><polygon class="cls-2" points="23.153 4.95 21.408 9.53 24.233 9.53 20.828 18.47 17.953 18.47 16.209 23.05 27.538 23.05 29.282 18.47 26.457 18.47 29.863 9.53 32.737 9.53 34.482 4.95 23.153 4.95"/><path class="cls-2" d="M57.51275,10.63718A4.194,4.194,0,0,0,53.59348,4.9501H42.13893a7.02624,7.02624,0,0,0-6.56594,4.525h0l-3.16817,8.3165a3.87784,3.87784,0,0,0,3.6238,5.25834H47.94194a7.01632,7.01632,0,0,0,3.85545-1.15363l.98648,1.15353H55.5821l.86187-2.26245L54.5082,18.52416Zm-8.76506,1.18207L47.00316,16.3987l1.45733,1.70417a3.549,3.549,0,0,1-1.9511.58563H40.784a2.28151,2.28151,0,0,1-2.27482-2.27482v-.01492l1.74064-4.58271a3.56061,3.56061,0,0,1,3.32483-2.28648h6.43975a1.6776,1.6776,0,0,1,1.5677,2.27482l-.87734,2.303Z"/></g></svg>