<svg id="Layer_1" data-name="Layer 1" xmlns="http://www.w3.org/2000/svg" viewBox="0 0 79 28"><defs><style>.cls-1{fill:#d7282f;}.cls-2{fill:#fff;}</style></defs><polygon class="cls-1" points="10 0 0 28 69 28 79 0 10 0"/><g id="V5_Print" data-name="V5 Print"><path class="cls-2" d="M45.82543,11.60123h9.454a4.194,4.194,0,0,1,3.91927,5.68708l-.035.09177-.44029,1.15577-.028.07342a7.06463,7.06463,0,0,1-6.60182,4.54966H35.839l1.74455-4.57946,14.29,0A1.69305,1.69305,0,0,0,53.4557,17.4891h0a.80408.80408,0,0,0-.75141-1.09033H38.40948l4.40294-11.5577H62.479L60.73446,9.42053H46.65619Z"/><polygon class="cls-2" points="39.898 4.841 33.868 4.841 27.396 16.08 23.114 4.841 17.521 4.841 24.416 22.941 29.475 22.941 39.898 4.841"/></g></svg>